<mxfile host="app.diagrams.net" modified="2023-12-10T12:53:22.206Z" agent="Mozilla/5.0 (Windows NT 10.0; Win64; x64) AppleWebKit/537.36 (KHTML, like Gecko) Chrome/119.0.0.0 Safari/537.36" etag="21SEdw72635wf6ji1O_S" version="22.1.7" type="github">
  <diagram name="Page-1" id="26w9j2wI0-lYgM_mEvnE">
    <mxGraphModel dx="880" dy="2634" grid="1" gridSize="10" guides="1" tooltips="1" connect="1" arrows="1" fold="1" page="1" pageScale="1" pageWidth="850" pageHeight="1100" math="0" shadow="0">
      <root>
        <mxCell id="0" />
        <mxCell id="1" parent="0" />
        <mxCell id="BVXd0zfF_OTjkGZNNh8Z-2" value="" style="rounded=0;whiteSpace=wrap;html=1;" vertex="1" parent="1">
          <mxGeometry x="520" y="70" width="240" height="340" as="geometry" />
        </mxCell>
        <mxCell id="BVXd0zfF_OTjkGZNNh8Z-21" style="edgeStyle=orthogonalEdgeStyle;rounded=0;orthogonalLoop=1;jettySize=auto;html=1;" edge="1" parent="1" source="BVXd0zfF_OTjkGZNNh8Z-3" target="BVXd0zfF_OTjkGZNNh8Z-5">
          <mxGeometry relative="1" as="geometry" />
        </mxCell>
        <mxCell id="BVXd0zfF_OTjkGZNNh8Z-3" value="Prediction Model" style="rounded=0;whiteSpace=wrap;html=1;" vertex="1" parent="1">
          <mxGeometry x="570" y="230" width="120" height="60" as="geometry" />
        </mxCell>
        <mxCell id="BVXd0zfF_OTjkGZNNh8Z-20" value="" style="edgeStyle=orthogonalEdgeStyle;rounded=0;orthogonalLoop=1;jettySize=auto;html=1;" edge="1" parent="1" source="BVXd0zfF_OTjkGZNNh8Z-4" target="BVXd0zfF_OTjkGZNNh8Z-3">
          <mxGeometry relative="1" as="geometry" />
        </mxCell>
        <mxCell id="BVXd0zfF_OTjkGZNNh8Z-4" value="&amp;nbsp;Controller" style="rounded=0;whiteSpace=wrap;html=1;" vertex="1" parent="1">
          <mxGeometry x="570" y="130" width="120" height="60" as="geometry" />
        </mxCell>
        <mxCell id="BVXd0zfF_OTjkGZNNh8Z-5" value="Data Base&lt;br&gt;" style="shape=cylinder3;whiteSpace=wrap;html=1;boundedLbl=1;backgroundOutline=1;size=15;" vertex="1" parent="1">
          <mxGeometry x="650" y="330" width="60" height="80" as="geometry" />
        </mxCell>
        <mxCell id="BVXd0zfF_OTjkGZNNh8Z-9" value="" style="whiteSpace=wrap;html=1;aspect=fixed;" vertex="1" parent="1">
          <mxGeometry x="140" y="135" width="210" height="210" as="geometry" />
        </mxCell>
        <mxCell id="BVXd0zfF_OTjkGZNNh8Z-15" value="" style="edgeStyle=orthogonalEdgeStyle;rounded=0;orthogonalLoop=1;jettySize=auto;html=1;" edge="1" parent="1" source="BVXd0zfF_OTjkGZNNh8Z-10" target="BVXd0zfF_OTjkGZNNh8Z-11">
          <mxGeometry relative="1" as="geometry" />
        </mxCell>
        <mxCell id="BVXd0zfF_OTjkGZNNh8Z-10" value="View" style="rounded=0;whiteSpace=wrap;html=1;" vertex="1" parent="1">
          <mxGeometry x="195" y="270" width="120" height="60" as="geometry" />
        </mxCell>
        <mxCell id="BVXd0zfF_OTjkGZNNh8Z-11" value="Client" style="sketch=0;outlineConnect=0;fontColor=#232F3E;gradientColor=none;strokeColor=#232F3E;fillColor=#ffffff;dashed=0;verticalLabelPosition=bottom;verticalAlign=top;align=center;html=1;fontSize=12;fontStyle=0;aspect=fixed;shape=mxgraph.aws4.resourceIcon;resIcon=mxgraph.aws4.client;" vertex="1" parent="1">
          <mxGeometry x="225" y="150" width="60" height="60" as="geometry" />
        </mxCell>
        <mxCell id="BVXd0zfF_OTjkGZNNh8Z-12" value="Server&lt;br&gt;" style="text;strokeColor=none;fillColor=none;html=1;fontSize=24;fontStyle=1;verticalAlign=middle;align=center;" vertex="1" parent="1">
          <mxGeometry x="580" y="80" width="100" height="40" as="geometry" />
        </mxCell>
        <mxCell id="BVXd0zfF_OTjkGZNNh8Z-13" value="" style="endArrow=classic;html=1;rounded=0;entryX=0;entryY=0.5;entryDx=0;entryDy=0;" edge="1" parent="1" source="BVXd0zfF_OTjkGZNNh8Z-11" target="BVXd0zfF_OTjkGZNNh8Z-4">
          <mxGeometry width="50" height="50" relative="1" as="geometry">
            <mxPoint x="400" y="230" as="sourcePoint" />
            <mxPoint x="450" y="180" as="targetPoint" />
          </mxGeometry>
        </mxCell>
        <mxCell id="BVXd0zfF_OTjkGZNNh8Z-18" value="" style="endArrow=classic;html=1;rounded=0;exitX=0.058;exitY=0.633;exitDx=0;exitDy=0;exitPerimeter=0;" edge="1" parent="1" source="BVXd0zfF_OTjkGZNNh8Z-4" target="BVXd0zfF_OTjkGZNNh8Z-10">
          <mxGeometry width="50" height="50" relative="1" as="geometry">
            <mxPoint x="400" y="230" as="sourcePoint" />
            <mxPoint x="450" y="180" as="targetPoint" />
          </mxGeometry>
        </mxCell>
        <mxCell id="BVXd0zfF_OTjkGZNNh8Z-23" value="Heterogeneous architecture for Wheatear App&lt;br&gt;Client server and MVC&lt;br&gt;&amp;nbsp;&amp;nbsp;" style="text;strokeColor=none;fillColor=none;html=1;fontSize=24;fontStyle=1;verticalAlign=middle;align=center;" vertex="1" parent="1">
          <mxGeometry x="285" y="-10" width="100" height="40" as="geometry" />
        </mxCell>
        <mxCell id="BVXd0zfF_OTjkGZNNh8Z-24" value="Controller" style="swimlane;fontStyle=1;align=center;verticalAlign=top;childLayout=stackLayout;horizontal=1;startSize=26;horizontalStack=0;resizeParent=1;resizeParentMax=0;resizeLast=0;collapsible=1;marginBottom=0;whiteSpace=wrap;html=1;" vertex="1" parent="1">
          <mxGeometry x="300" y="480" width="160" height="100" as="geometry" />
        </mxCell>
        <mxCell id="BVXd0zfF_OTjkGZNNh8Z-26" value="" style="line;strokeWidth=1;fillColor=none;align=left;verticalAlign=middle;spacingTop=-1;spacingLeft=3;spacingRight=3;rotatable=0;labelPosition=right;points=[];portConstraint=eastwest;strokeColor=inherit;" vertex="1" parent="BVXd0zfF_OTjkGZNNh8Z-24">
          <mxGeometry y="26" width="160" height="8" as="geometry" />
        </mxCell>
        <mxCell id="BVXd0zfF_OTjkGZNNh8Z-27" value="getUserInput(): String&lt;br&gt;updateView(weatherData:&amp;nbsp;" style="text;strokeColor=none;fillColor=none;align=left;verticalAlign=top;spacingLeft=4;spacingRight=4;overflow=hidden;rotatable=0;points=[[0,0.5],[1,0.5]];portConstraint=eastwest;whiteSpace=wrap;html=1;" vertex="1" parent="BVXd0zfF_OTjkGZNNh8Z-24">
          <mxGeometry y="34" width="160" height="66" as="geometry" />
        </mxCell>
        <mxCell id="BVXd0zfF_OTjkGZNNh8Z-28" value="Model" style="swimlane;fontStyle=1;align=center;verticalAlign=top;childLayout=stackLayout;horizontal=1;startSize=26;horizontalStack=0;resizeParent=1;resizeParentMax=0;resizeLast=0;collapsible=1;marginBottom=0;whiteSpace=wrap;html=1;" vertex="1" parent="1">
          <mxGeometry x="360" y="630" width="160" height="86" as="geometry" />
        </mxCell>
        <mxCell id="BVXd0zfF_OTjkGZNNh8Z-29" value="+ field: type" style="text;strokeColor=none;fillColor=none;align=left;verticalAlign=top;spacingLeft=4;spacingRight=4;overflow=hidden;rotatable=0;points=[[0,0.5],[1,0.5]];portConstraint=eastwest;whiteSpace=wrap;html=1;" vertex="1" parent="BVXd0zfF_OTjkGZNNh8Z-28">
          <mxGeometry y="26" width="160" height="26" as="geometry" />
        </mxCell>
        <mxCell id="BVXd0zfF_OTjkGZNNh8Z-30" value="" style="line;strokeWidth=1;fillColor=none;align=left;verticalAlign=middle;spacingTop=-1;spacingLeft=3;spacingRight=3;rotatable=0;labelPosition=right;points=[];portConstraint=eastwest;strokeColor=inherit;" vertex="1" parent="BVXd0zfF_OTjkGZNNh8Z-28">
          <mxGeometry y="52" width="160" height="8" as="geometry" />
        </mxCell>
        <mxCell id="BVXd0zfF_OTjkGZNNh8Z-31" value="+ method(type): type" style="text;strokeColor=none;fillColor=none;align=left;verticalAlign=top;spacingLeft=4;spacingRight=4;overflow=hidden;rotatable=0;points=[[0,0.5],[1,0.5]];portConstraint=eastwest;whiteSpace=wrap;html=1;" vertex="1" parent="BVXd0zfF_OTjkGZNNh8Z-28">
          <mxGeometry y="60" width="160" height="26" as="geometry" />
        </mxCell>
        <mxCell id="BVXd0zfF_OTjkGZNNh8Z-32" value="View" style="swimlane;fontStyle=1;align=center;verticalAlign=top;childLayout=stackLayout;horizontal=1;startSize=26;horizontalStack=0;resizeParent=1;resizeParentMax=0;resizeLast=0;collapsible=1;marginBottom=0;whiteSpace=wrap;html=1;" vertex="1" parent="1">
          <mxGeometry x="220" y="790" width="160" height="86" as="geometry" />
        </mxCell>
        <mxCell id="BVXd0zfF_OTjkGZNNh8Z-33" value="+ field: type" style="text;strokeColor=none;fillColor=none;align=left;verticalAlign=top;spacingLeft=4;spacingRight=4;overflow=hidden;rotatable=0;points=[[0,0.5],[1,0.5]];portConstraint=eastwest;whiteSpace=wrap;html=1;" vertex="1" parent="BVXd0zfF_OTjkGZNNh8Z-32">
          <mxGeometry y="26" width="160" height="26" as="geometry" />
        </mxCell>
        <mxCell id="BVXd0zfF_OTjkGZNNh8Z-34" value="" style="line;strokeWidth=1;fillColor=none;align=left;verticalAlign=middle;spacingTop=-1;spacingLeft=3;spacingRight=3;rotatable=0;labelPosition=right;points=[];portConstraint=eastwest;strokeColor=inherit;" vertex="1" parent="BVXd0zfF_OTjkGZNNh8Z-32">
          <mxGeometry y="52" width="160" height="8" as="geometry" />
        </mxCell>
        <mxCell id="BVXd0zfF_OTjkGZNNh8Z-35" value="+ method(type): type" style="text;strokeColor=none;fillColor=none;align=left;verticalAlign=top;spacingLeft=4;spacingRight=4;overflow=hidden;rotatable=0;points=[[0,0.5],[1,0.5]];portConstraint=eastwest;whiteSpace=wrap;html=1;" vertex="1" parent="BVXd0zfF_OTjkGZNNh8Z-32">
          <mxGeometry y="60" width="160" height="26" as="geometry" />
        </mxCell>
        <mxCell id="BVXd0zfF_OTjkGZNNh8Z-36" value="User&lt;br&gt;" style="swimlane;fontStyle=1;align=center;verticalAlign=top;childLayout=stackLayout;horizontal=1;startSize=26;horizontalStack=0;resizeParent=1;resizeParentMax=0;resizeLast=0;collapsible=1;marginBottom=0;whiteSpace=wrap;html=1;" vertex="1" parent="1">
          <mxGeometry x="510" y="686" width="160" height="86" as="geometry" />
        </mxCell>
        <mxCell id="BVXd0zfF_OTjkGZNNh8Z-37" value="+ field: type" style="text;strokeColor=none;fillColor=none;align=left;verticalAlign=top;spacingLeft=4;spacingRight=4;overflow=hidden;rotatable=0;points=[[0,0.5],[1,0.5]];portConstraint=eastwest;whiteSpace=wrap;html=1;" vertex="1" parent="BVXd0zfF_OTjkGZNNh8Z-36">
          <mxGeometry y="26" width="160" height="26" as="geometry" />
        </mxCell>
        <mxCell id="BVXd0zfF_OTjkGZNNh8Z-38" value="" style="line;strokeWidth=1;fillColor=none;align=left;verticalAlign=middle;spacingTop=-1;spacingLeft=3;spacingRight=3;rotatable=0;labelPosition=right;points=[];portConstraint=eastwest;strokeColor=inherit;" vertex="1" parent="BVXd0zfF_OTjkGZNNh8Z-36">
          <mxGeometry y="52" width="160" height="8" as="geometry" />
        </mxCell>
        <mxCell id="BVXd0zfF_OTjkGZNNh8Z-39" value="+ method(type): type" style="text;strokeColor=none;fillColor=none;align=left;verticalAlign=top;spacingLeft=4;spacingRight=4;overflow=hidden;rotatable=0;points=[[0,0.5],[1,0.5]];portConstraint=eastwest;whiteSpace=wrap;html=1;" vertex="1" parent="BVXd0zfF_OTjkGZNNh8Z-36">
          <mxGeometry y="60" width="160" height="26" as="geometry" />
        </mxCell>
        <mxCell id="BVXd0zfF_OTjkGZNNh8Z-40" value="" style="rounded=0;orthogonalLoop=1;jettySize=auto;html=1;endArrow=halfCircle;endFill=0;endSize=6;strokeWidth=1;sketch=0;exitX=0;exitY=0.75;exitDx=0;exitDy=0;" edge="1" parent="1">
          <mxGeometry relative="1" as="geometry">
            <mxPoint x="450" y="-1080" as="sourcePoint" />
            <mxPoint x="260" y="-1070" as="targetPoint" />
          </mxGeometry>
        </mxCell>
        <mxCell id="BVXd0zfF_OTjkGZNNh8Z-41" value="" style="rounded=0;orthogonalLoop=1;jettySize=auto;html=1;endArrow=oval;endFill=0;sketch=0;sourcePerimeterSpacing=0;targetPerimeterSpacing=0;endSize=10;exitX=0.7;exitY=1.033;exitDx=0;exitDy=0;exitPerimeter=0;" edge="1" parent="1" source="BVXd0zfF_OTjkGZNNh8Z-43">
          <mxGeometry relative="1" as="geometry">
            <mxPoint x="170" y="-1050" as="sourcePoint" />
            <mxPoint x="260" y="-1070" as="targetPoint" />
            <Array as="points">
              <mxPoint x="190" y="-1070" />
            </Array>
          </mxGeometry>
        </mxCell>
        <mxCell id="BVXd0zfF_OTjkGZNNh8Z-42" value="" style="ellipse;whiteSpace=wrap;html=1;align=center;aspect=fixed;fillColor=none;strokeColor=none;resizable=0;perimeter=centerPerimeter;rotatable=0;allowArrows=0;points=[];outlineConnect=1;" vertex="1" parent="1">
          <mxGeometry x="215" y="-1050" width="10" height="10" as="geometry" />
        </mxCell>
        <mxCell id="BVXd0zfF_OTjkGZNNh8Z-43" value="ICPS" style="html=1;dropTarget=0;whiteSpace=wrap;" vertex="1" parent="1">
          <mxGeometry x="80" y="-1110" width="110" height="60" as="geometry" />
        </mxCell>
        <mxCell id="BVXd0zfF_OTjkGZNNh8Z-44" value="" style="shape=module;jettyWidth=8;jettyHeight=4;" vertex="1" parent="BVXd0zfF_OTjkGZNNh8Z-43">
          <mxGeometry x="1" width="20" height="20" relative="1" as="geometry">
            <mxPoint x="-27" y="7" as="offset" />
          </mxGeometry>
        </mxCell>
        <mxCell id="BVXd0zfF_OTjkGZNNh8Z-45" value="ASS" style="html=1;dropTarget=0;whiteSpace=wrap;" vertex="1" parent="1">
          <mxGeometry x="390" y="-1280" width="110" height="60" as="geometry" />
        </mxCell>
        <mxCell id="BVXd0zfF_OTjkGZNNh8Z-46" value="" style="shape=module;jettyWidth=8;jettyHeight=4;" vertex="1" parent="BVXd0zfF_OTjkGZNNh8Z-45">
          <mxGeometry x="1" width="20" height="20" relative="1" as="geometry">
            <mxPoint x="-27" y="7" as="offset" />
          </mxGeometry>
        </mxCell>
        <mxCell id="BVXd0zfF_OTjkGZNNh8Z-47" value="Patient portal" style="html=1;dropTarget=0;whiteSpace=wrap;" vertex="1" parent="1">
          <mxGeometry x="100" y="-1280" width="150" height="60" as="geometry" />
        </mxCell>
        <mxCell id="BVXd0zfF_OTjkGZNNh8Z-48" value="" style="shape=module;jettyWidth=8;jettyHeight=4;" vertex="1" parent="BVXd0zfF_OTjkGZNNh8Z-47">
          <mxGeometry x="1" width="20" height="20" relative="1" as="geometry">
            <mxPoint x="-27" y="7" as="offset" />
          </mxGeometry>
        </mxCell>
        <mxCell id="BVXd0zfF_OTjkGZNNh8Z-49" value="Billing System" style="html=1;dropTarget=0;whiteSpace=wrap;" vertex="1" parent="1">
          <mxGeometry x="390" y="-1110" width="140" height="60" as="geometry" />
        </mxCell>
        <mxCell id="BVXd0zfF_OTjkGZNNh8Z-50" value="" style="shape=module;jettyWidth=8;jettyHeight=4;" vertex="1" parent="BVXd0zfF_OTjkGZNNh8Z-49">
          <mxGeometry x="1" width="20" height="20" relative="1" as="geometry">
            <mxPoint x="-27" y="7" as="offset" />
          </mxGeometry>
        </mxCell>
        <mxCell id="BVXd0zfF_OTjkGZNNh8Z-51" value="EHR" style="html=1;dropTarget=0;whiteSpace=wrap;" vertex="1" parent="1">
          <mxGeometry x="630" y="-1430" width="110" height="60" as="geometry" />
        </mxCell>
        <mxCell id="BVXd0zfF_OTjkGZNNh8Z-52" value="" style="shape=module;jettyWidth=8;jettyHeight=4;" vertex="1" parent="BVXd0zfF_OTjkGZNNh8Z-51">
          <mxGeometry x="1" width="20" height="20" relative="1" as="geometry">
            <mxPoint x="-27" y="7" as="offset" />
          </mxGeometry>
        </mxCell>
        <mxCell id="BVXd0zfF_OTjkGZNNh8Z-53" value="Doctor&lt;br&gt;" style="html=1;dropTarget=0;whiteSpace=wrap;" vertex="1" parent="1">
          <mxGeometry x="650" y="-1275" width="110" height="60" as="geometry" />
        </mxCell>
        <mxCell id="BVXd0zfF_OTjkGZNNh8Z-54" value="" style="shape=module;jettyWidth=8;jettyHeight=4;" vertex="1" parent="BVXd0zfF_OTjkGZNNh8Z-53">
          <mxGeometry x="1" width="20" height="20" relative="1" as="geometry">
            <mxPoint x="-27" y="7" as="offset" />
          </mxGeometry>
        </mxCell>
        <mxCell id="BVXd0zfF_OTjkGZNNh8Z-55" value="ICPS Insurance Claim Processing System&lt;br&gt;&lt;br&gt;" style="shape=note;whiteSpace=wrap;html=1;backgroundOutline=1;fontColor=#000000;darkOpacity=0.05;fillColor=#FFF9B2;strokeColor=none;fillStyle=solid;direction=west;gradientDirection=north;gradientColor=#FFF2A1;shadow=1;size=20;pointerEvents=1;" vertex="1" parent="1">
          <mxGeometry x="80" y="-1030" width="140" height="50" as="geometry" />
        </mxCell>
        <mxCell id="BVXd0zfF_OTjkGZNNh8Z-56" value="" style="rounded=0;orthogonalLoop=1;jettySize=auto;html=1;endArrow=halfCircle;endFill=0;endSize=6;strokeWidth=1;sketch=0;exitX=-0.009;exitY=0.633;exitDx=0;exitDy=0;exitPerimeter=0;" edge="1" parent="1" source="BVXd0zfF_OTjkGZNNh8Z-45" target="BVXd0zfF_OTjkGZNNh8Z-58">
          <mxGeometry relative="1" as="geometry">
            <mxPoint x="340" y="-1245" as="sourcePoint" />
          </mxGeometry>
        </mxCell>
        <mxCell id="BVXd0zfF_OTjkGZNNh8Z-57" value="" style="rounded=0;orthogonalLoop=1;jettySize=auto;html=1;endArrow=oval;endFill=0;sketch=0;sourcePerimeterSpacing=0;targetPerimeterSpacing=0;endSize=10;exitX=1;exitY=0.633;exitDx=0;exitDy=0;exitPerimeter=0;" edge="1" parent="1" source="BVXd0zfF_OTjkGZNNh8Z-47" target="BVXd0zfF_OTjkGZNNh8Z-58">
          <mxGeometry relative="1" as="geometry">
            <mxPoint x="300" y="-1245" as="sourcePoint" />
          </mxGeometry>
        </mxCell>
        <mxCell id="BVXd0zfF_OTjkGZNNh8Z-58" value="" style="ellipse;whiteSpace=wrap;html=1;align=center;aspect=fixed;fillColor=none;strokeColor=none;resizable=0;perimeter=centerPerimeter;rotatable=0;allowArrows=0;points=[];outlineConnect=1;" vertex="1" parent="1">
          <mxGeometry x="315" y="-1245" width="10" height="10" as="geometry" />
        </mxCell>
        <mxCell id="BVXd0zfF_OTjkGZNNh8Z-59" value="Patient&amp;nbsp;" style="html=1;dropTarget=0;whiteSpace=wrap;" vertex="1" parent="1">
          <mxGeometry x="110" y="-1430" width="110" height="60" as="geometry" />
        </mxCell>
        <mxCell id="BVXd0zfF_OTjkGZNNh8Z-60" value="" style="shape=module;jettyWidth=8;jettyHeight=4;" vertex="1" parent="BVXd0zfF_OTjkGZNNh8Z-59">
          <mxGeometry x="1" width="20" height="20" relative="1" as="geometry">
            <mxPoint x="-27" y="7" as="offset" />
          </mxGeometry>
        </mxCell>
        <mxCell id="BVXd0zfF_OTjkGZNNh8Z-61" value="" style="ellipse;whiteSpace=wrap;html=1;align=center;aspect=fixed;fillColor=none;strokeColor=none;resizable=0;perimeter=centerPerimeter;rotatable=0;allowArrows=0;points=[];outlineConnect=1;" vertex="1" parent="1">
          <mxGeometry x="305" y="-1330" width="10" height="10" as="geometry" />
        </mxCell>
        <mxCell id="BVXd0zfF_OTjkGZNNh8Z-62" value="" style="rounded=0;orthogonalLoop=1;jettySize=auto;html=1;endArrow=oval;endFill=0;sketch=0;sourcePerimeterSpacing=0;targetPerimeterSpacing=0;endSize=10;entryX=0.6;entryY=0.3;entryDx=0;entryDy=0;entryPerimeter=0;exitX=0.6;exitY=1;exitDx=0;exitDy=0;exitPerimeter=0;" edge="1" parent="1" source="BVXd0zfF_OTjkGZNNh8Z-59" target="BVXd0zfF_OTjkGZNNh8Z-69">
          <mxGeometry relative="1" as="geometry">
            <mxPoint x="195" y="-1360" as="sourcePoint" />
          </mxGeometry>
        </mxCell>
        <mxCell id="BVXd0zfF_OTjkGZNNh8Z-63" value="" style="ellipse;whiteSpace=wrap;html=1;align=center;aspect=fixed;fillColor=none;strokeColor=none;resizable=0;perimeter=centerPerimeter;rotatable=0;allowArrows=0;points=[];outlineConnect=1;" vertex="1" parent="1">
          <mxGeometry x="195" y="-1350" width="10" height="10" as="geometry" />
        </mxCell>
        <mxCell id="BVXd0zfF_OTjkGZNNh8Z-64" value="" style="rounded=0;orthogonalLoop=1;jettySize=auto;html=1;endArrow=halfCircle;endFill=0;endSize=6;strokeWidth=1;sketch=0;exitX=0.564;exitY=1;exitDx=0;exitDy=0;exitPerimeter=0;" edge="1" parent="1" source="BVXd0zfF_OTjkGZNNh8Z-51" target="BVXd0zfF_OTjkGZNNh8Z-66">
          <mxGeometry relative="1" as="geometry">
            <mxPoint x="700" y="-1360" as="sourcePoint" />
          </mxGeometry>
        </mxCell>
        <mxCell id="BVXd0zfF_OTjkGZNNh8Z-65" value="" style="rounded=0;orthogonalLoop=1;jettySize=auto;html=1;endArrow=oval;endFill=0;sketch=0;sourcePerimeterSpacing=0;targetPerimeterSpacing=0;endSize=10;" edge="1" parent="1" target="BVXd0zfF_OTjkGZNNh8Z-66">
          <mxGeometry relative="1" as="geometry">
            <mxPoint x="695" y="-1280" as="sourcePoint" />
          </mxGeometry>
        </mxCell>
        <mxCell id="BVXd0zfF_OTjkGZNNh8Z-66" value="" style="ellipse;whiteSpace=wrap;html=1;align=center;aspect=fixed;fillColor=none;strokeColor=none;resizable=0;perimeter=centerPerimeter;rotatable=0;allowArrows=0;points=[];outlineConnect=1;" vertex="1" parent="1">
          <mxGeometry x="690" y="-1320" width="10" height="10" as="geometry" />
        </mxCell>
        <mxCell id="BVXd0zfF_OTjkGZNNh8Z-67" value="" style="ellipse;whiteSpace=wrap;html=1;align=center;aspect=fixed;fillColor=none;strokeColor=none;resizable=0;perimeter=centerPerimeter;rotatable=0;allowArrows=0;points=[];outlineConnect=1;" vertex="1" parent="1">
          <mxGeometry x="440" y="-1280" width="10" height="10" as="geometry" />
        </mxCell>
        <mxCell id="BVXd0zfF_OTjkGZNNh8Z-68" value="" style="rounded=0;orthogonalLoop=1;jettySize=auto;html=1;endArrow=halfCircle;endFill=0;endSize=6;strokeWidth=1;sketch=0;fontSize=12;curved=1;exitX=0.5;exitY=0;exitDx=0;exitDy=0;" edge="1" parent="1" source="BVXd0zfF_OTjkGZNNh8Z-47" target="BVXd0zfF_OTjkGZNNh8Z-69">
          <mxGeometry relative="1" as="geometry">
            <mxPoint x="195" y="-1315" as="sourcePoint" />
          </mxGeometry>
        </mxCell>
        <mxCell id="BVXd0zfF_OTjkGZNNh8Z-69" value="" style="ellipse;whiteSpace=wrap;html=1;align=center;aspect=fixed;fillColor=none;strokeColor=none;resizable=0;perimeter=centerPerimeter;rotatable=0;allowArrows=0;points=[];outlineConnect=1;" vertex="1" parent="1">
          <mxGeometry x="170" y="-1340" width="10" height="10" as="geometry" />
        </mxCell>
        <mxCell id="BVXd0zfF_OTjkGZNNh8Z-70" value="" style="rounded=0;orthogonalLoop=1;jettySize=auto;html=1;endArrow=oval;endFill=0;sketch=0;sourcePerimeterSpacing=0;targetPerimeterSpacing=0;endSize=10;exitX=0;exitY=0.5;exitDx=0;exitDy=0;" edge="1" parent="1" source="BVXd0zfF_OTjkGZNNh8Z-53" target="BVXd0zfF_OTjkGZNNh8Z-72">
          <mxGeometry relative="1" as="geometry">
            <mxPoint x="530" y="-1175" as="sourcePoint" />
          </mxGeometry>
        </mxCell>
        <mxCell id="BVXd0zfF_OTjkGZNNh8Z-71" value="" style="rounded=0;orthogonalLoop=1;jettySize=auto;html=1;endArrow=halfCircle;endFill=0;endSize=6;strokeWidth=1;sketch=0;exitX=1;exitY=0.5;exitDx=0;exitDy=0;entryX=0;entryY=0.5;entryDx=0;entryDy=0;entryPerimeter=0;" edge="1" parent="1" target="BVXd0zfF_OTjkGZNNh8Z-72">
          <mxGeometry relative="1" as="geometry">
            <mxPoint x="500" y="-1240" as="sourcePoint" />
            <mxPoint x="590" y="-1250" as="targetPoint" />
            <Array as="points" />
          </mxGeometry>
        </mxCell>
        <mxCell id="BVXd0zfF_OTjkGZNNh8Z-72" value="" style="ellipse;whiteSpace=wrap;html=1;align=center;aspect=fixed;fillColor=none;strokeColor=none;resizable=0;perimeter=centerPerimeter;rotatable=0;allowArrows=0;points=[];outlineConnect=1;" vertex="1" parent="1">
          <mxGeometry x="590" y="-1250" width="10" height="10" as="geometry" />
        </mxCell>
        <mxCell id="BVXd0zfF_OTjkGZNNh8Z-73" value="" style="rounded=0;orthogonalLoop=1;jettySize=auto;html=1;endArrow=halfCircle;endFill=0;endSize=6;strokeWidth=1;sketch=0;exitX=0.25;exitY=1;exitDx=0;exitDy=0;" edge="1" parent="1" source="BVXd0zfF_OTjkGZNNh8Z-47" target="BVXd0zfF_OTjkGZNNh8Z-75">
          <mxGeometry relative="1" as="geometry">
            <mxPoint x="160" y="-1145" as="sourcePoint" />
          </mxGeometry>
        </mxCell>
        <mxCell id="BVXd0zfF_OTjkGZNNh8Z-74" value="" style="rounded=0;orthogonalLoop=1;jettySize=auto;html=1;endArrow=oval;endFill=0;sketch=0;sourcePerimeterSpacing=0;targetPerimeterSpacing=0;endSize=10;exitX=0.573;exitY=0.017;exitDx=0;exitDy=0;exitPerimeter=0;" edge="1" parent="1" source="BVXd0zfF_OTjkGZNNh8Z-43" target="BVXd0zfF_OTjkGZNNh8Z-75">
          <mxGeometry relative="1" as="geometry">
            <mxPoint x="140" y="-1120" as="sourcePoint" />
          </mxGeometry>
        </mxCell>
        <mxCell id="BVXd0zfF_OTjkGZNNh8Z-75" value="" style="ellipse;whiteSpace=wrap;html=1;align=center;aspect=fixed;fillColor=none;strokeColor=none;resizable=0;perimeter=centerPerimeter;rotatable=0;allowArrows=0;points=[];outlineConnect=1;" vertex="1" parent="1">
          <mxGeometry x="135" y="-1150" width="10" height="10" as="geometry" />
        </mxCell>
        <mxCell id="BVXd0zfF_OTjkGZNNh8Z-76" value="" style="rounded=0;orthogonalLoop=1;jettySize=auto;html=1;endArrow=halfCircle;endFill=0;endSize=6;strokeWidth=1;sketch=0;" edge="1" parent="1" target="BVXd0zfF_OTjkGZNNh8Z-78">
          <mxGeometry relative="1" as="geometry">
            <mxPoint x="705" y="-1210" as="sourcePoint" />
          </mxGeometry>
        </mxCell>
        <mxCell id="BVXd0zfF_OTjkGZNNh8Z-77" value="" style="rounded=0;orthogonalLoop=1;jettySize=auto;html=1;endArrow=oval;endFill=0;sketch=0;sourcePerimeterSpacing=0;targetPerimeterSpacing=0;endSize=10;exitX=1;exitY=0.5;exitDx=0;exitDy=0;" edge="1" parent="1" source="BVXd0zfF_OTjkGZNNh8Z-49" target="BVXd0zfF_OTjkGZNNh8Z-78">
          <mxGeometry relative="1" as="geometry">
            <mxPoint x="685" y="-1065" as="sourcePoint" />
          </mxGeometry>
        </mxCell>
        <mxCell id="BVXd0zfF_OTjkGZNNh8Z-78" value="" style="ellipse;whiteSpace=wrap;html=1;align=center;aspect=fixed;fillColor=none;strokeColor=none;resizable=0;perimeter=centerPerimeter;rotatable=0;allowArrows=0;points=[];outlineConnect=1;" vertex="1" parent="1">
          <mxGeometry x="700" y="-1085" width="10" height="10" as="geometry" />
        </mxCell>
        <mxCell id="BVXd0zfF_OTjkGZNNh8Z-79" value="" style="rounded=0;orthogonalLoop=1;jettySize=auto;html=1;endArrow=halfCircle;endFill=0;endSize=6;strokeWidth=1;sketch=0;exitX=1;exitY=0.5;exitDx=0;exitDy=0;" edge="1" parent="1" source="BVXd0zfF_OTjkGZNNh8Z-59" target="BVXd0zfF_OTjkGZNNh8Z-81">
          <mxGeometry relative="1" as="geometry">
            <mxPoint x="530" y="-1400" as="sourcePoint" />
          </mxGeometry>
        </mxCell>
        <mxCell id="BVXd0zfF_OTjkGZNNh8Z-80" value="" style="rounded=0;orthogonalLoop=1;jettySize=auto;html=1;endArrow=oval;endFill=0;sketch=0;sourcePerimeterSpacing=0;targetPerimeterSpacing=0;endSize=10;exitX=0;exitY=0.25;exitDx=0;exitDy=0;" edge="1" parent="1" source="BVXd0zfF_OTjkGZNNh8Z-51" target="BVXd0zfF_OTjkGZNNh8Z-81">
          <mxGeometry relative="1" as="geometry">
            <mxPoint x="490" y="-1400" as="sourcePoint" />
          </mxGeometry>
        </mxCell>
        <mxCell id="BVXd0zfF_OTjkGZNNh8Z-81" value="" style="ellipse;whiteSpace=wrap;html=1;align=center;aspect=fixed;fillColor=none;strokeColor=none;resizable=0;perimeter=centerPerimeter;rotatable=0;allowArrows=0;points=[];outlineConnect=1;" vertex="1" parent="1">
          <mxGeometry x="505" y="-1405" width="10" height="10" as="geometry" />
        </mxCell>
        <mxCell id="BVXd0zfF_OTjkGZNNh8Z-82" value="ASS Appointment Scheduling System" style="shape=note;whiteSpace=wrap;html=1;backgroundOutline=1;fontColor=#000000;darkOpacity=0.05;fillColor=#FFF9B2;strokeColor=none;fillStyle=solid;direction=west;gradientDirection=north;gradientColor=#FFF2A1;shadow=1;size=20;pointerEvents=1;" vertex="1" parent="1">
          <mxGeometry x="300" y="-1190" width="140" height="50" as="geometry" />
        </mxCell>
      </root>
    </mxGraphModel>
  </diagram>
</mxfile>
